<mxfile host="app.diagrams.net" modified="2023-10-31T03:16:35.523Z" agent="Mozilla/5.0 (Windows NT 10.0; Win64; x64) AppleWebKit/537.36 (KHTML, like Gecko) Chrome/118.0.0.0 Safari/537.36" etag="1L-24dSlbqT0g596S6wF" version="22.0.8" type="device">
  <diagram name="Page-1" id="LH5AXXtx_nH838pcfW0p">
    <mxGraphModel dx="2614" dy="1013" grid="1" gridSize="10" guides="1" tooltips="1" connect="1" arrows="1" fold="1" page="1" pageScale="1" pageWidth="850" pageHeight="1100" math="0" shadow="0">
      <root>
        <mxCell id="0" />
        <mxCell id="1" parent="0" />
        <mxCell id="g5sbJeMvWJrhKsOIn0ZZ-3" value="&lt;b&gt;Users&lt;/b&gt;" style="shape=umlActor;verticalLabelPosition=bottom;verticalAlign=top;html=1;outlineConnect=0;" parent="1" vertex="1">
          <mxGeometry x="20" y="380" width="40" height="70" as="geometry" />
        </mxCell>
        <mxCell id="g5sbJeMvWJrhKsOIn0ZZ-15" style="edgeStyle=orthogonalEdgeStyle;rounded=0;orthogonalLoop=1;jettySize=auto;html=1;exitX=0.5;exitY=0;exitDx=0;exitDy=0;exitPerimeter=0;" parent="1" source="g5sbJeMvWJrhKsOIn0ZZ-4" edge="1">
          <mxGeometry relative="1" as="geometry">
            <mxPoint x="40" y="480" as="targetPoint" />
            <mxPoint x="60" y="560" as="sourcePoint" />
          </mxGeometry>
        </mxCell>
        <mxCell id="g5sbJeMvWJrhKsOIn0ZZ-4" value="&lt;b&gt;Donor&lt;/b&gt;" style="shape=umlActor;verticalLabelPosition=bottom;verticalAlign=top;html=1;outlineConnect=0;" parent="1" vertex="1">
          <mxGeometry x="60" y="560" width="30" height="60" as="geometry" />
        </mxCell>
        <mxCell id="g5sbJeMvWJrhKsOIn0ZZ-6" value="&lt;b&gt;Admin&lt;/b&gt;" style="shape=umlActor;verticalLabelPosition=bottom;verticalAlign=top;html=1;outlineConnect=0;" parent="1" vertex="1">
          <mxGeometry x="760" y="840" width="50" height="80" as="geometry" />
        </mxCell>
        <mxCell id="g5sbJeMvWJrhKsOIn0ZZ-16" style="edgeStyle=orthogonalEdgeStyle;rounded=0;orthogonalLoop=1;jettySize=auto;html=1;exitX=0.5;exitY=0;exitDx=0;exitDy=0;exitPerimeter=0;" parent="1" source="g5sbJeMvWJrhKsOIn0ZZ-9" edge="1">
          <mxGeometry relative="1" as="geometry">
            <mxPoint x="40" y="480" as="targetPoint" />
          </mxGeometry>
        </mxCell>
        <mxCell id="g5sbJeMvWJrhKsOIn0ZZ-9" value="&lt;b&gt;Farmer&lt;/b&gt;" style="shape=umlActor;verticalLabelPosition=bottom;verticalAlign=top;html=1;outlineConnect=0;" parent="1" vertex="1">
          <mxGeometry x="-10" y="560" width="30" height="60" as="geometry" />
        </mxCell>
        <mxCell id="g5sbJeMvWJrhKsOIn0ZZ-10" value="&lt;b&gt;NGO&lt;/b&gt;" style="shape=umlActor;verticalLabelPosition=bottom;verticalAlign=top;html=1;outlineConnect=0;" parent="1" vertex="1">
          <mxGeometry x="760" y="200" width="50" height="80" as="geometry" />
        </mxCell>
        <mxCell id="g5sbJeMvWJrhKsOIn0ZZ-11" value="&lt;b&gt;Volunteer&lt;/b&gt;" style="shape=umlActor;verticalLabelPosition=bottom;verticalAlign=top;html=1;outlineConnect=0;" parent="1" vertex="1">
          <mxGeometry x="770" y="600" width="50" height="80" as="geometry" />
        </mxCell>
        <mxCell id="g5sbJeMvWJrhKsOIn0ZZ-12" value="" style="rounded=0;whiteSpace=wrap;html=1;" parent="1" vertex="1">
          <mxGeometry x="110" y="80" width="610" height="960" as="geometry" />
        </mxCell>
        <mxCell id="g5sbJeMvWJrhKsOIn0ZZ-17" value="&lt;font style=&quot;font-size: 16px;&quot;&gt;Register details&lt;/font&gt;" style="ellipse;whiteSpace=wrap;html=1;" parent="1" vertex="1">
          <mxGeometry x="340" y="170" width="140" height="70" as="geometry" />
        </mxCell>
        <mxCell id="g5sbJeMvWJrhKsOIn0ZZ-18" value="&lt;font style=&quot;font-size: 16px;&quot;&gt;Login&lt;/font&gt;" style="ellipse;whiteSpace=wrap;html=1;" parent="1" vertex="1">
          <mxGeometry x="340" y="460" width="110" height="55" as="geometry" />
        </mxCell>
        <mxCell id="g5sbJeMvWJrhKsOIn0ZZ-34" style="rounded=0;orthogonalLoop=1;jettySize=auto;html=1;exitX=1;exitY=0;exitDx=0;exitDy=0;endArrow=none;endFill=0;entryX=0;entryY=1;entryDx=0;entryDy=0;entryPerimeter=0;" parent="1" source="g5sbJeMvWJrhKsOIn0ZZ-19" edge="1" target="g5sbJeMvWJrhKsOIn0ZZ-10">
          <mxGeometry relative="1" as="geometry">
            <mxPoint x="760" y="360" as="targetPoint" />
          </mxGeometry>
        </mxCell>
        <mxCell id="g5sbJeMvWJrhKsOIn0ZZ-36" style="rounded=0;orthogonalLoop=1;jettySize=auto;html=1;exitX=0;exitY=0.5;exitDx=0;exitDy=0;endArrow=none;endFill=0;" parent="1" source="g5sbJeMvWJrhKsOIn0ZZ-19" edge="1">
          <mxGeometry relative="1" as="geometry">
            <mxPoint x="60" y="450" as="targetPoint" />
          </mxGeometry>
        </mxCell>
        <mxCell id="g5sbJeMvWJrhKsOIn0ZZ-19" value="&lt;font style=&quot;font-size: 16px;&quot;&gt;View History&lt;/font&gt;" style="ellipse;whiteSpace=wrap;html=1;" parent="1" vertex="1">
          <mxGeometry x="315" y="290" width="140" height="60" as="geometry" />
        </mxCell>
        <mxCell id="g5sbJeMvWJrhKsOIn0ZZ-20" value="&lt;font style=&quot;font-size: 16px;&quot;&gt;Take Membership&lt;/font&gt;" style="ellipse;whiteSpace=wrap;html=1;" parent="1" vertex="1">
          <mxGeometry x="590" y="420" width="120" height="60" as="geometry" />
        </mxCell>
        <mxCell id="g5sbJeMvWJrhKsOIn0ZZ-43" style="rounded=0;orthogonalLoop=1;jettySize=auto;html=1;exitX=0.5;exitY=1;exitDx=0;exitDy=0;entryX=0;entryY=0;entryDx=0;entryDy=0;endArrow=open;endFill=0;dashed=1;" parent="1" source="g5sbJeMvWJrhKsOIn0ZZ-21" target="g5sbJeMvWJrhKsOIn0ZZ-41" edge="1">
          <mxGeometry relative="1" as="geometry" />
        </mxCell>
        <mxCell id="H-FCuesiG5nVkV9vHhXY-22" value="&amp;lt;&amp;lt;&lt;b&gt;Include&lt;/b&gt;&amp;gt;&amp;gt;" style="edgeLabel;html=1;align=center;verticalAlign=middle;resizable=0;points=[];" vertex="1" connectable="0" parent="g5sbJeMvWJrhKsOIn0ZZ-43">
          <mxGeometry x="0.0079" y="1" relative="1" as="geometry">
            <mxPoint as="offset" />
          </mxGeometry>
        </mxCell>
        <mxCell id="g5sbJeMvWJrhKsOIn0ZZ-21" value="&lt;font style=&quot;font-size: 16px;&quot;&gt;Food donate&lt;/font&gt;" style="ellipse;whiteSpace=wrap;html=1;" parent="1" vertex="1">
          <mxGeometry x="220" y="570" width="120" height="60" as="geometry" />
        </mxCell>
        <mxCell id="g5sbJeMvWJrhKsOIn0ZZ-44" style="rounded=0;orthogonalLoop=1;jettySize=auto;html=1;exitX=1;exitY=0.5;exitDx=0;exitDy=0;endArrow=none;endFill=0;entryX=0;entryY=0.3333333333333333;entryDx=0;entryDy=0;entryPerimeter=0;" parent="1" source="g5sbJeMvWJrhKsOIn0ZZ-22" target="g5sbJeMvWJrhKsOIn0ZZ-11" edge="1">
          <mxGeometry relative="1" as="geometry">
            <mxPoint x="770" y="630" as="targetPoint" />
          </mxGeometry>
        </mxCell>
        <mxCell id="g5sbJeMvWJrhKsOIn0ZZ-45" style="rounded=0;orthogonalLoop=1;jettySize=auto;html=1;exitX=0;exitY=0;exitDx=0;exitDy=0;endArrow=none;endFill=0;" parent="1" source="g5sbJeMvWJrhKsOIn0ZZ-22" edge="1">
          <mxGeometry relative="1" as="geometry">
            <mxPoint x="60" y="450" as="targetPoint" />
          </mxGeometry>
        </mxCell>
        <mxCell id="g5sbJeMvWJrhKsOIn0ZZ-22" value="&lt;font style=&quot;font-size: 16px;&quot;&gt;Donation rating&lt;/font&gt;" style="ellipse;whiteSpace=wrap;html=1;" parent="1" vertex="1">
          <mxGeometry x="330" y="800" width="110" height="60" as="geometry" />
        </mxCell>
        <mxCell id="g5sbJeMvWJrhKsOIn0ZZ-23" style="rounded=0;orthogonalLoop=1;jettySize=auto;html=1;exitX=1;exitY=0;exitDx=0;exitDy=0;entryX=0;entryY=1;entryDx=0;entryDy=0;entryPerimeter=0;endArrow=none;endFill=0;" parent="1" source="g5sbJeMvWJrhKsOIn0ZZ-20" target="g5sbJeMvWJrhKsOIn0ZZ-10" edge="1">
          <mxGeometry relative="1" as="geometry" />
        </mxCell>
        <mxCell id="g5sbJeMvWJrhKsOIn0ZZ-27" style="rounded=0;orthogonalLoop=1;jettySize=auto;html=1;exitX=1;exitY=1;exitDx=0;exitDy=0;entryX=0;entryY=0.3333333333333333;entryDx=0;entryDy=0;entryPerimeter=0;endArrow=none;endFill=0;" parent="1" source="g5sbJeMvWJrhKsOIn0ZZ-20" target="g5sbJeMvWJrhKsOIn0ZZ-11" edge="1">
          <mxGeometry relative="1" as="geometry" />
        </mxCell>
        <mxCell id="g5sbJeMvWJrhKsOIn0ZZ-28" style="rounded=0;orthogonalLoop=1;jettySize=auto;html=1;exitX=1;exitY=1;exitDx=0;exitDy=0;exitPerimeter=0;endArrow=none;endFill=0;entryX=0;entryY=0.5;entryDx=0;entryDy=0;" parent="1" source="g5sbJeMvWJrhKsOIn0ZZ-3" target="g5sbJeMvWJrhKsOIn0ZZ-18" edge="1">
          <mxGeometry relative="1" as="geometry">
            <mxPoint x="340" y="490" as="targetPoint" />
          </mxGeometry>
        </mxCell>
        <mxCell id="g5sbJeMvWJrhKsOIn0ZZ-29" style="rounded=0;orthogonalLoop=1;jettySize=auto;html=1;exitX=1;exitY=0.5;exitDx=0;exitDy=0;entryX=0;entryY=0.3333333333333333;entryDx=0;entryDy=0;entryPerimeter=0;endArrow=none;endFill=0;" parent="1" source="g5sbJeMvWJrhKsOIn0ZZ-18" target="g5sbJeMvWJrhKsOIn0ZZ-11" edge="1">
          <mxGeometry relative="1" as="geometry" />
        </mxCell>
        <mxCell id="g5sbJeMvWJrhKsOIn0ZZ-31" style="rounded=0;orthogonalLoop=1;jettySize=auto;html=1;exitX=0;exitY=1;exitDx=0;exitDy=0;entryX=1;entryY=1;entryDx=0;entryDy=0;entryPerimeter=0;endArrow=none;endFill=0;" parent="1" source="g5sbJeMvWJrhKsOIn0ZZ-17" target="g5sbJeMvWJrhKsOIn0ZZ-3" edge="1">
          <mxGeometry relative="1" as="geometry" />
        </mxCell>
        <mxCell id="g5sbJeMvWJrhKsOIn0ZZ-32" style="rounded=0;orthogonalLoop=1;jettySize=auto;html=1;exitX=0.5;exitY=1;exitDx=0;exitDy=0;entryX=0;entryY=0.3333333333333333;entryDx=0;entryDy=0;entryPerimeter=0;endArrow=none;endFill=0;" parent="1" source="g5sbJeMvWJrhKsOIn0ZZ-19" target="g5sbJeMvWJrhKsOIn0ZZ-11" edge="1">
          <mxGeometry relative="1" as="geometry" />
        </mxCell>
        <mxCell id="g5sbJeMvWJrhKsOIn0ZZ-40" style="rounded=0;orthogonalLoop=1;jettySize=auto;html=1;exitX=0;exitY=0;exitDx=0;exitDy=0;entryX=1;entryY=1;entryDx=0;entryDy=0;entryPerimeter=0;endArrow=none;endFill=0;" parent="1" source="g5sbJeMvWJrhKsOIn0ZZ-21" target="g5sbJeMvWJrhKsOIn0ZZ-3" edge="1">
          <mxGeometry relative="1" as="geometry" />
        </mxCell>
        <mxCell id="g5sbJeMvWJrhKsOIn0ZZ-42" style="rounded=0;orthogonalLoop=1;jettySize=auto;html=1;exitX=1;exitY=0.5;exitDx=0;exitDy=0;endArrow=none;endFill=0;" parent="1" source="g5sbJeMvWJrhKsOIn0ZZ-41" edge="1">
          <mxGeometry relative="1" as="geometry">
            <mxPoint x="770" y="626" as="targetPoint" />
          </mxGeometry>
        </mxCell>
        <mxCell id="g5sbJeMvWJrhKsOIn0ZZ-41" value="&lt;font style=&quot;font-size: 16px;&quot;&gt;Food donate info&lt;/font&gt;" style="ellipse;whiteSpace=wrap;html=1;" parent="1" vertex="1">
          <mxGeometry x="400" y="690" width="120" height="70" as="geometry" />
        </mxCell>
        <mxCell id="g5sbJeMvWJrhKsOIn0ZZ-48" style="rounded=0;orthogonalLoop=1;jettySize=auto;html=1;exitX=1;exitY=0;exitDx=0;exitDy=0;endArrow=none;endFill=0;entryX=0;entryY=0.3333333333333333;entryDx=0;entryDy=0;entryPerimeter=0;" parent="1" source="g5sbJeMvWJrhKsOIn0ZZ-46" target="g5sbJeMvWJrhKsOIn0ZZ-11" edge="1">
          <mxGeometry relative="1" as="geometry">
            <mxPoint x="770" y="630" as="targetPoint" />
          </mxGeometry>
        </mxCell>
        <mxCell id="g5sbJeMvWJrhKsOIn0ZZ-49" style="rounded=0;orthogonalLoop=1;jettySize=auto;html=1;exitX=0;exitY=0;exitDx=0;exitDy=0;endArrow=none;endFill=0;" parent="1" source="g5sbJeMvWJrhKsOIn0ZZ-46" edge="1">
          <mxGeometry relative="1" as="geometry">
            <mxPoint x="60" y="450" as="targetPoint" />
          </mxGeometry>
        </mxCell>
        <mxCell id="g5sbJeMvWJrhKsOIn0ZZ-46" value="&lt;font style=&quot;font-size: 16px;&quot;&gt;Complain with admin&lt;/font&gt;" style="ellipse;whiteSpace=wrap;html=1;" parent="1" vertex="1">
          <mxGeometry x="300" y="910" width="140" height="70" as="geometry" />
        </mxCell>
        <mxCell id="g5sbJeMvWJrhKsOIn0ZZ-47" style="rounded=0;orthogonalLoop=1;jettySize=auto;html=1;exitX=1;exitY=0.5;exitDx=0;exitDy=0;entryX=0;entryY=1;entryDx=0;entryDy=0;entryPerimeter=0;endArrow=none;endFill=0;" parent="1" source="g5sbJeMvWJrhKsOIn0ZZ-46" target="g5sbJeMvWJrhKsOIn0ZZ-6" edge="1">
          <mxGeometry relative="1" as="geometry" />
        </mxCell>
        <mxCell id="H-FCuesiG5nVkV9vHhXY-5" style="rounded=0;orthogonalLoop=1;jettySize=auto;html=1;exitX=1;exitY=1;exitDx=0;exitDy=0;entryX=0.5;entryY=0;entryDx=0;entryDy=0;endArrow=none;endFill=0;dashed=1;startArrow=open;startFill=0;" edge="1" parent="1" source="H-FCuesiG5nVkV9vHhXY-3" target="g5sbJeMvWJrhKsOIn0ZZ-20">
          <mxGeometry relative="1" as="geometry" />
        </mxCell>
        <mxCell id="H-FCuesiG5nVkV9vHhXY-6" value="&lt;b&gt;&amp;lt;&amp;lt;Include&amp;gt;&amp;gt;&lt;/b&gt;" style="edgeLabel;html=1;align=center;verticalAlign=middle;resizable=0;points=[];rotation=0;" vertex="1" connectable="0" parent="H-FCuesiG5nVkV9vHhXY-5">
          <mxGeometry x="-0.06" y="3" relative="1" as="geometry">
            <mxPoint as="offset" />
          </mxGeometry>
        </mxCell>
        <mxCell id="H-FCuesiG5nVkV9vHhXY-3" value="&lt;font style=&quot;font-size: 16px;&quot;&gt;Privilege&lt;/font&gt;" style="ellipse;whiteSpace=wrap;html=1;" vertex="1" parent="1">
          <mxGeometry x="470" y="320" width="100" height="50" as="geometry" />
        </mxCell>
        <mxCell id="H-FCuesiG5nVkV9vHhXY-8" style="rounded=0;orthogonalLoop=1;jettySize=auto;html=1;exitX=1;exitY=1;exitDx=0;exitDy=0;entryX=0;entryY=0;entryDx=0;entryDy=0;endArrow=none;endFill=0;dashed=1;startArrow=open;startFill=0;" edge="1" parent="1" source="H-FCuesiG5nVkV9vHhXY-10" target="g5sbJeMvWJrhKsOIn0ZZ-18">
          <mxGeometry relative="1" as="geometry">
            <mxPoint x="660" y="450" as="targetPoint" />
          </mxGeometry>
        </mxCell>
        <mxCell id="H-FCuesiG5nVkV9vHhXY-9" value="&amp;lt;&amp;lt;&lt;b&gt;Extends&lt;/b&gt;&amp;gt;&amp;gt;" style="edgeLabel;html=1;align=center;verticalAlign=middle;resizable=0;points=[];rotation=0;" vertex="1" connectable="0" parent="H-FCuesiG5nVkV9vHhXY-8">
          <mxGeometry x="-0.06" y="3" relative="1" as="geometry">
            <mxPoint as="offset" />
          </mxGeometry>
        </mxCell>
        <mxCell id="H-FCuesiG5nVkV9vHhXY-10" value="&lt;font style=&quot;font-size: 16px;&quot;&gt;Error Message&lt;/font&gt;" style="ellipse;whiteSpace=wrap;html=1;" vertex="1" parent="1">
          <mxGeometry x="200" y="390" width="100" height="50" as="geometry" />
        </mxCell>
        <mxCell id="H-FCuesiG5nVkV9vHhXY-11" value="&lt;font style=&quot;font-size: 16px;&quot;&gt;Verification&lt;/font&gt;" style="ellipse;whiteSpace=wrap;html=1;" vertex="1" parent="1">
          <mxGeometry x="390" y="590" width="110" height="55" as="geometry" />
        </mxCell>
        <mxCell id="H-FCuesiG5nVkV9vHhXY-13" style="rounded=0;orthogonalLoop=1;jettySize=auto;html=1;exitX=0.5;exitY=1;exitDx=0;exitDy=0;entryX=0.5;entryY=0;entryDx=0;entryDy=0;endArrow=open;endFill=0;dashed=1;" edge="1" parent="1" source="g5sbJeMvWJrhKsOIn0ZZ-18" target="H-FCuesiG5nVkV9vHhXY-11">
          <mxGeometry relative="1" as="geometry">
            <mxPoint x="486" y="563" as="targetPoint" />
            <mxPoint x="440" y="520" as="sourcePoint" />
          </mxGeometry>
        </mxCell>
        <mxCell id="H-FCuesiG5nVkV9vHhXY-14" value="&amp;lt;&amp;lt;&lt;b&gt;Include&lt;/b&gt;&amp;gt;&amp;gt;" style="edgeLabel;html=1;align=center;verticalAlign=middle;resizable=0;points=[];rotation=0;" vertex="1" connectable="0" parent="H-FCuesiG5nVkV9vHhXY-13">
          <mxGeometry x="-0.06" y="3" relative="1" as="geometry">
            <mxPoint x="-4" y="2" as="offset" />
          </mxGeometry>
        </mxCell>
        <mxCell id="H-FCuesiG5nVkV9vHhXY-15" style="rounded=0;orthogonalLoop=1;jettySize=auto;html=1;exitX=0;exitY=0.5;exitDx=0;exitDy=0;entryX=1;entryY=0.5;entryDx=0;entryDy=0;endArrow=none;endFill=0;dashed=1;startArrow=open;startFill=0;" edge="1" parent="1" source="H-FCuesiG5nVkV9vHhXY-17" target="g5sbJeMvWJrhKsOIn0ZZ-17">
          <mxGeometry relative="1" as="geometry">
            <mxPoint x="338.4974746830569" y="219.74873734152845" as="targetPoint" />
            <mxPoint x="439.0000000000002" y="275" as="sourcePoint" />
          </mxGeometry>
        </mxCell>
        <mxCell id="H-FCuesiG5nVkV9vHhXY-16" value="&amp;lt;&amp;lt;&lt;b&gt;Include&lt;/b&gt;&amp;gt;&amp;gt;" style="edgeLabel;html=1;align=center;verticalAlign=middle;resizable=0;points=[];rotation=0;" vertex="1" connectable="0" parent="H-FCuesiG5nVkV9vHhXY-15">
          <mxGeometry x="-0.06" y="3" relative="1" as="geometry">
            <mxPoint as="offset" />
          </mxGeometry>
        </mxCell>
        <mxCell id="H-FCuesiG5nVkV9vHhXY-17" value="&lt;font style=&quot;font-size: 16px;&quot;&gt;Success Message&lt;/font&gt;" style="ellipse;whiteSpace=wrap;html=1;" vertex="1" parent="1">
          <mxGeometry x="590" y="110" width="110" height="60" as="geometry" />
        </mxCell>
        <mxCell id="H-FCuesiG5nVkV9vHhXY-18" style="rounded=0;orthogonalLoop=1;jettySize=auto;html=1;exitX=1;exitY=0.5;exitDx=0;exitDy=0;entryX=0;entryY=0;entryDx=0;entryDy=0;endArrow=none;endFill=0;dashed=1;startArrow=open;startFill=0;" edge="1" parent="1" source="H-FCuesiG5nVkV9vHhXY-20" target="g5sbJeMvWJrhKsOIn0ZZ-17">
          <mxGeometry relative="1" as="geometry">
            <mxPoint x="370" y="80" as="targetPoint" />
          </mxGeometry>
        </mxCell>
        <mxCell id="H-FCuesiG5nVkV9vHhXY-19" value="&amp;lt;&amp;lt;&lt;b&gt;Extends&lt;/b&gt;&amp;gt;&amp;gt;" style="edgeLabel;html=1;align=center;verticalAlign=middle;resizable=0;points=[];rotation=0;" vertex="1" connectable="0" parent="H-FCuesiG5nVkV9vHhXY-18">
          <mxGeometry x="-0.06" y="3" relative="1" as="geometry">
            <mxPoint as="offset" />
          </mxGeometry>
        </mxCell>
        <mxCell id="H-FCuesiG5nVkV9vHhXY-20" value="&lt;font style=&quot;font-size: 16px;&quot;&gt;Error Message&lt;/font&gt;" style="ellipse;whiteSpace=wrap;html=1;" vertex="1" parent="1">
          <mxGeometry x="140" y="115" width="100" height="50" as="geometry" />
        </mxCell>
        <mxCell id="H-FCuesiG5nVkV9vHhXY-24" style="rounded=0;orthogonalLoop=1;jettySize=auto;html=1;exitX=1;exitY=0.5;exitDx=0;exitDy=0;endArrow=none;endFill=0;" edge="1" parent="1" source="H-FCuesiG5nVkV9vHhXY-23">
          <mxGeometry relative="1" as="geometry">
            <mxPoint x="770" y="627.5" as="targetPoint" />
          </mxGeometry>
        </mxCell>
        <mxCell id="H-FCuesiG5nVkV9vHhXY-23" value="&lt;font style=&quot;font-size: 16px;&quot;&gt;View Donation info&lt;/font&gt;" style="ellipse;whiteSpace=wrap;html=1;" vertex="1" parent="1">
          <mxGeometry x="520" y="600" width="130" height="65" as="geometry" />
        </mxCell>
      </root>
    </mxGraphModel>
  </diagram>
</mxfile>
